<?xml version="1.0" encoding="UTF-8" standalone="no"?>
<!DOCTYPE svg PUBLIC "-//W3C//DTD SVG 1.1//EN" "http://www.w3.org/Graphics/SVG/1.1/DTD/svg11.dtd">
<svg version="1.1" xmlns="http://www.w3.org/2000/svg" xmlns:xlink="http://www.w3.org/1999/xlink" preserveAspectRatio="xMidYMid meet" viewBox="0 0 640 640" width="640" height="640"><defs><path d="M267.82 18.26C278.87 18.26 287.82 27.22 287.82 38.26C287.82 46.08 287.82 49.54 287.82 57.35C287.82 68.4 278.87 77.35 267.82 77.35C248.98 77.35 212.44 77.35 193.6 77.35C182.55 77.35 173.6 68.4 173.6 57.35C173.6 49.54 173.6 46.08 173.6 38.26C173.6 27.22 182.55 18.26 193.6 18.26C212.44 18.26 248.98 18.26 267.82 18.26Z" id="c4Dsvs12wH"></path><path d="M181.93 12.2C186.53 12.2 190.27 15.93 190.27 20.54C190.27 50.08 190.27 130.38 190.27 159.93C190.27 164.53 186.53 168.26 181.93 168.26C180.27 168.26 183.6 168.26 181.93 168.26C177.33 168.26 173.6 164.53 173.6 159.93C173.6 130.38 173.6 50.08 173.6 20.54C173.6 15.93 177.33 12.2 181.93 12.2C183.6 12.2 180.27 12.2 181.93 12.2Z" id="a1sNNwDW5g"></path><path d="M0 320L592.31 320L592.31 645.29L0 645.29L0 320Z" id="a3yXqNa2Yr"></path><path d="M120 123.45L377.47 123.45L377.47 645.29L120 645.29L120 123.45Z" id="a1tzpCGM9i"></path><path d="M111.95 108.51L385.52 108.51L385.52 128.05L111.95 128.05L111.95 108.51Z" id="d1chy8HHXr"></path><path d="M340.11 711.95C340.11 842 299.17 947.59 248.74 947.59C198.3 947.59 157.36 842 157.36 711.95C157.36 581.91 198.3 476.32 248.74 476.32C299.17 476.32 340.11 581.91 340.11 711.95Z" id="bmgo3bglk"></path><path d="M252.46 479.39C258.21 476.15 296.63 492.85 319.7 565.25C324.59 580.6 338.53 641.37 341.38 673.99C342.55 687.32 350.36 714.34 364.83 755.07C324.17 693.6 306.65 659.85 312.25 653.8C317.76 647.86 294.53 590.05 242.56 480.36C242.17 479.54 243.08 478.72 243.86 479.18C246.77 480.91 249.64 480.98 252.46 479.39Z" id="b8oqYXwpT"></path><path d="" id="l2qs4NF9kl"></path><path d="M385.52 118.28L111.95 118.28L385.52 118.28Z" id="a69IpnadzX"></path><path d="M157.36 168.26L229.24 168.26L229.24 282.94L157.36 282.94L157.36 168.26Z" id="c2B1AkZr20"></path><path d="M268.23 168.26L340.11 168.26L340.11 282.94L268.23 282.94L268.23 168.26Z" id="fvsoZaFk"></path><path d="M157.36 296.32L229.24 296.32L229.24 410.99L157.36 410.99L157.36 296.32Z" id="a5vtHN2gZ"></path><path d="M268.23 296.32L340.11 296.32L340.11 410.99L268.23 410.99L268.23 296.32Z" id="a3ePLkQJ2m"></path><path d="M431.93 384.37L466.78 384.37L466.78 474.51L431.93 474.51L431.93 384.37Z" id="b3JHC3Sb"></path><path d="M494.36 384.37L529.21 384.37L529.21 474.51L494.36 474.51L494.36 384.37Z" id="n1kua3Cs7M"></path><path d="M431.93 497.1L466.78 497.1L466.78 587.23L431.93 587.23L431.93 497.1Z" id="b3pdRogb3l"></path><path d="M494.36 497.1L529.21 497.1L529.21 587.23L494.36 587.23L494.36 497.1Z" id="h2NYabrFVb"></path><path d="M29.51 384.37L64.36 384.37L64.36 474.51L29.51 474.51L29.51 384.37Z" id="aLQgBsdMM"></path><path d="M29.51 497.1L64.36 497.1L64.36 587.23L29.51 587.23L29.51 497.1Z" id="a5Lh5xXGg"></path><path d="M-22.73 384.37L12.12 384.37L12.12 474.51L-22.73 474.51L-22.73 384.37Z" id="hz7rfnLzX"></path><path d="M-22.73 497.1L12.12 497.1L12.12 587.23L-22.73 587.23L-22.73 497.1Z" id="b2RS3D73w"></path></defs><g><g><g><use xlink:href="#c4Dsvs12wH" opacity="1" fill="#e4e4e4" fill-opacity="1"></use></g><g><use xlink:href="#a1sNNwDW5g" opacity="1" fill="#8c3f49" fill-opacity="1"></use></g><g><use xlink:href="#a3yXqNa2Yr" opacity="1" fill="#fff1db" fill-opacity="1"></use></g><g><use xlink:href="#a1tzpCGM9i" opacity="1" fill="#feccb0" fill-opacity="1"></use></g><g><use xlink:href="#d1chy8HHXr" opacity="1" fill="#e56a9b" fill-opacity="1"></use></g><g><use xlink:href="#bmgo3bglk" opacity="1" fill="#272538" fill-opacity="1"></use><g><use xlink:href="#bmgo3bglk" opacity="1" fill-opacity="0" stroke="#cc8564" stroke-width="5" stroke-opacity="1"></use></g></g><g><use xlink:href="#b8oqYXwpT" opacity="1" fill="#42324a" fill-opacity="1"></use></g><g><g><use xlink:href="#l2qs4NF9kl" opacity="1" fill-opacity="0" stroke="#000000" stroke-width="1" stroke-opacity="1"></use></g></g><g><g><use xlink:href="#a69IpnadzX" opacity="1" fill-opacity="0" stroke="#b13b72" stroke-width="3" stroke-opacity="1"></use></g></g><g><g><filter id="shadow12986067" x="149.36" y="160.26" width="90.89" height="130.67" filterUnits="userSpaceOnUse" primitiveUnits="userSpaceOnUse"><feFlood></feFlood><feComposite in2="SourceAlpha" operator="in"></feComposite><feGaussianBlur stdDeviation="0"></feGaussianBlur><feOffset dx="-3" dy="0" result="afterOffset"></feOffset><feFlood flood-color="#c95a3e" flood-opacity="0.5"></feFlood><feComposite in2="afterOffset" operator="in"></feComposite><feMorphology operator="dilate" radius="0"></feMorphology><feComposite in2="SourceAlpha" operator="out"></feComposite></filter><path d="M157.36 168.26L229.24 168.26L229.24 282.94L157.36 282.94L157.36 168.26Z" id="fem46uE2M" fill="white" fill-opacity="1" filter="url(#shadow12986067)"></path></g><use xlink:href="#c2B1AkZr20" opacity="1" fill="#d25c43" fill-opacity="1"></use></g><g><g><filter id="shadow106593" x="259.23" y="159.26" width="92.89" height="132.67" filterUnits="userSpaceOnUse" primitiveUnits="userSpaceOnUse"><feFlood></feFlood><feComposite in2="SourceAlpha" operator="in"></feComposite><feGaussianBlur stdDeviation="0"></feGaussianBlur><feOffset dx="-3" dy="0" result="afterOffset"></feOffset><feFlood flood-color="#c95a3e" flood-opacity="0.5"></feFlood><feComposite in2="afterOffset" operator="in"></feComposite><feMorphology operator="dilate" radius="1"></feMorphology><feComposite in2="SourceAlpha" operator="out"></feComposite></filter><path d="M268.23 168.26L340.11 168.26L340.11 282.94L268.23 282.94L268.23 168.26Z" id="a2Y140Nlne" fill="white" fill-opacity="1" filter="url(#shadow106593)"></path></g><use xlink:href="#fvsoZaFk" opacity="1" fill="#d25c43" fill-opacity="1"></use></g><g><g><filter id="shadow16136355" x="149.36" y="288.32" width="90.89" height="130.67" filterUnits="userSpaceOnUse" primitiveUnits="userSpaceOnUse"><feFlood></feFlood><feComposite in2="SourceAlpha" operator="in"></feComposite><feGaussianBlur stdDeviation="0"></feGaussianBlur><feOffset dx="-3" dy="0" result="afterOffset"></feOffset><feFlood flood-color="#c95a3e" flood-opacity="0.5"></feFlood><feComposite in2="afterOffset" operator="in"></feComposite><feMorphology operator="dilate" radius="0"></feMorphology><feComposite in2="SourceAlpha" operator="out"></feComposite></filter><path d="M157.36 296.32L229.24 296.32L229.24 410.99L157.36 410.99L157.36 296.32Z" id="daRtc7RHX" fill="white" fill-opacity="1" filter="url(#shadow16136355)"></path></g><use xlink:href="#a5vtHN2gZ" opacity="1" fill="#d25c43" fill-opacity="1"></use></g><g><g><filter id="shadow10626798" x="259.23" y="287.32" width="92.89" height="132.67" filterUnits="userSpaceOnUse" primitiveUnits="userSpaceOnUse"><feFlood></feFlood><feComposite in2="SourceAlpha" operator="in"></feComposite><feGaussianBlur stdDeviation="0"></feGaussianBlur><feOffset dx="-3" dy="0" result="afterOffset"></feOffset><feFlood flood-color="#c95a3e" flood-opacity="0.5"></feFlood><feComposite in2="afterOffset" operator="in"></feComposite><feMorphology operator="dilate" radius="1"></feMorphology><feComposite in2="SourceAlpha" operator="out"></feComposite></filter><path d="M268.23 296.32L340.11 296.32L340.11 410.99L268.23 410.99L268.23 296.32Z" id="aoNaTXMnW" fill="white" fill-opacity="1" filter="url(#shadow10626798)"></path></g><use xlink:href="#a3ePLkQJ2m" opacity="1" fill="#d25c43" fill-opacity="1"></use></g><g><use xlink:href="#b3JHC3Sb" opacity="1" fill="#fed192" fill-opacity="1"></use></g><g><use xlink:href="#n1kua3Cs7M" opacity="1" fill="#fed192" fill-opacity="1"></use></g><g><use xlink:href="#b3pdRogb3l" opacity="1" fill="#fed192" fill-opacity="1"></use></g><g><use xlink:href="#h2NYabrFVb" opacity="1" fill="#fed192" fill-opacity="1"></use></g><g><use xlink:href="#aLQgBsdMM" opacity="1" fill="#fed192" fill-opacity="1"></use></g><g><use xlink:href="#a5Lh5xXGg" opacity="1" fill="#fed192" fill-opacity="1"></use></g><g><use xlink:href="#hz7rfnLzX" opacity="1" fill="#fed192" fill-opacity="1"></use></g><g><use xlink:href="#b2RS3D73w" opacity="1" fill="#fed192" fill-opacity="1"></use></g></g></g></svg>